<svg xmlns="http://www.w3.org/2000/svg" xmlns:xlink="http://www.w3.org/1999/xlink" width="200" zoomAndPan="magnify" viewBox="0 0 150 112.499997" height="150" preserveAspectRatio="xMidYMid meet" version="1.0"><defs><clipPath id="20422ef877"><path d="M 2.117188 0.785156 L 147.71875 0.785156 L 147.71875 111.296875 L 2.117188 111.296875 Z M 2.117188 0.785156 " clip-rule="nonzero"/></clipPath></defs><g clip-path="url(#20422ef877)"><path fill="#1e3f48" d="M 146.339844 71.25 C 144.3125 71.753906 142.226562 71.789062 140.15625 71.910156 C 136.960938 72.09375 133.773438 72.332031 130.617188 72.917969 C 130.109375 73.011719 129.796875 73.222656 129.46875 73.617188 C 125.433594 78.496094 122.226562 83.960938 118.550781 89.09375 C 114.242188 95.109375 109.90625 101.101562 105.425781 106.988281 C 104.488281 108.21875 103.851562 109.691406 102.417969 110.507812 C 101.609375 110.96875 100.828125 111.179688 99.84375 111.019531 C 88.308594 109.136719 76.828125 106.917969 65.226562 105.457031 C 58.566406 104.617188 52.027344 103.058594 45.402344 101.996094 C 40.234375 101.167969 35.003906 100.667969 29.898438 99.480469 C 25.441406 98.441406 21.082031 96.976562 16.609375 96.019531 C 12.960938 95.234375 9.464844 94.011719 5.917969 92.921875 C 5.1875 92.699219 4.636719 92.230469 4.597656 91.480469 C 4.457031 88.921875 3.238281 86.667969 2.644531 84.238281 C 2.121094 82.097656 2.203125 80.09375 3.878906 78.464844 C 6.789062 75.632812 9.027344 72.289062 11.289062 68.953125 C 11.820312 68.167969 12.398438 67.390625 13.058594 66.710938 C 18.351562 61.265625 22.378906 54.769531 27.566406 49.230469 C 28.648438 48.074219 29.402344 46.613281 30.332031 45.308594 C 30.828125 44.609375 30.882812 43.964844 30.492188 43.152344 C 29.691406 41.480469 29.085938 39.71875 28.601562 37.921875 C 28.144531 36.21875 28.621094 35.441406 30.320312 35.113281 C 33.359375 34.523438 33.304688 34.519531 33.679688 31.140625 C 33.871094 29.449219 33.753906 27.679688 34.757812 26.125 C 35.050781 25.671875 35.339844 25.320312 35.789062 25.042969 C 40.074219 22.40625 44.8125 21.160156 49.71875 20.398438 C 52.464844 19.972656 55.21875 19.710938 57.464844 19.84375 C 63.390625 19.796875 68.71875 20.210938 73.835938 22.082031 C 74.363281 22.277344 74.546875 22.128906 74.695312 21.707031 C 75.199219 20.261719 76.28125 19.261719 77.339844 18.230469 C 78.207031 17.386719 79.027344 16.488281 79.832031 15.582031 C 81.589844 13.597656 83.449219 11.777344 85.785156 10.414062 C 88.65625 8.738281 91.265625 6.660156 94.265625 5.144531 C 97.9375 3.289062 101.878906 2.632812 105.835938 1.929688 C 108.734375 1.414062 111.660156 1.058594 114.597656 0.953125 C 117.859375 0.832031 118.628906 1.367188 119.847656 4.101562 C 120.847656 6.351562 121.632812 8.695312 122.621094 10.949219 C 126.085938 18.84375 130.164062 26.421875 134.582031 33.816406 C 136.410156 36.875 137.601562 40.230469 139.257812 43.367188 C 140.515625 45.738281 141.757812 48.105469 143.089844 50.4375 C 144.558594 53.011719 144.523438 52.921875 141.828125 54.339844 C 140.949219 54.800781 140.734375 55.003906 141.449219 55.796875 C 142.515625 56.992188 143.445312 58.304688 144.488281 59.519531 C 145.464844 60.667969 145.667969 61.976562 145.433594 63.386719 C 145.242188 64.554688 145.367188 65.578125 146.164062 66.542969 C 146.792969 67.304688 147.253906 68.214844 147.546875 69.171875 C 147.886719 70.273438 147.46875 70.96875 146.339844 71.25 Z M 146.339844 71.25 " fill-opacity="1" fill-rule="nonzero"/></g><path fill="#767fa7" d="M 145.140625 67.65625 C 146.210938 69.5625 146.761719 69.941406 144.238281 70.234375 C 142.820312 70.398438 141.394531 70.542969 139.96875 70.558594 C 132.625 70.621094 125.613281 72.304688 118.671875 74.59375 C 113.132812 76.425781 107.679688 78.441406 102.429688 80.984375 C 100.4375 81.953125 98.34375 81.371094 96.027344 81.609375 C 90.714844 81.085938 85.136719 81.476562 79.566406 81.851562 C 74.527344 82.1875 69.535156 83.027344 64.527344 83.699219 C 60.578125 84.230469 56.730469 85.136719 52.867188 86.042969 C 50.703125 86.554688 50.453125 86.324219 49.828125 84.273438 C 48.945312 81.375 47.84375 78.550781 46.382812 75.902344 C 43.972656 71.535156 42.78125 66.644531 40.523438 62.234375 C 36.976562 55.300781 34.699219 47.824219 31.199219 40.875 C 30.679688 39.839844 30.398438 38.6875 29.933594 37.621094 C 29.664062 36.992188 29.851562 36.742188 30.449219 36.640625 C 31.089844 36.527344 31.726562 36.410156 32.363281 36.296875 C 32.796875 36.21875 33.015625 36.308594 33.183594 36.820312 C 33.808594 38.699219 34.566406 40.535156 35.210938 42.410156 C 36.761719 46.90625 38.96875 51.105469 41.03125 55.367188 C 41.9375 57.238281 42.214844 59.3125 43.140625 61.1875 C 45.195312 65.359375 47.144531 69.585938 48.722656 73.980469 C 49.539062 76.253906 50.039062 78.628906 51.066406 80.832031 C 51.746094 82.289062 52.109375 82.5625 53.808594 82.261719 C 55.679688 81.933594 57.542969 81.542969 59.402344 81.167969 C 68.0625 79.417969 76.75 77.917969 85.632812 77.960938 C 89.566406 77.980469 93.355469 78.871094 97.140625 79.773438 C 98.535156 80.101562 99.785156 80.019531 100.972656 79.207031 C 106.042969 75.75 111.613281 73.3125 117.378906 71.308594 C 122.207031 69.632812 127.152344 68.398438 132.246094 67.871094 C 134.09375 67.679688 135.960938 67.65625 137.820312 67.558594 C 140.019531 67.441406 142.238281 67.824219 144.417969 67.300781 C 144.8125 67.207031 144.984375 67.378906 145.140625 67.65625 Z M 145.140625 67.65625 " fill-opacity="1" fill-rule="nonzero"/><path fill="#3b82f6" d="M 12.328125 81.613281 C 9.835938 80.980469 7.253906 80.683594 4.675781 80.238281 C 13.820312 68.730469 22.867188 57.347656 31.898438 45.980469 C 32.929688 47.957031 33.683594 50.253906 34.609375 52.480469 C 34.75 52.816406 34.621094 53.035156 34.449219 53.304688 C 28.5 62.476562 22.242188 71.425781 15.753906 80.222656 C 14.835938 81.460938 13.984375 82.035156 12.328125 81.613281 Z M 110.109375 79.164062 C 107.496094 80.167969 104.890625 81.1875 102.273438 82.171875 C 100.734375 82.746094 99.136719 83.273438 97.488281 83.03125 C 96.5 82.890625 96.101562 83.28125 95.683594 84.015625 C 93.40625 87.984375 89.980469 89.796875 85.414062 89.355469 C 83.308594 89.152344 81.460938 88.152344 79.550781 87.363281 C 78.164062 86.792969 77.09375 85.808594 76.480469 84.503906 C 76.066406 83.625 75.550781 83.546875 74.773438 83.628906 C 69.574219 84.183594 64.4375 85.132812 59.269531 85.90625 C 56.761719 86.285156 54.40625 87.4375 51.792969 87.34375 C 49.566406 87.265625 49.1875 87.027344 48.574219 84.957031 C 47.949219 82.84375 47.125 80.808594 46.242188 78.789062 C 44.519531 74.839844 42.449219 71.054688 41.050781 66.945312 C 40.183594 64.402344 39.082031 61.902344 37.753906 59.550781 C 31.945312 67.117188 28.460938 76.136719 21.996094 83.261719 C 24.90625 83.902344 27.652344 84.453125 30.371094 85.113281 C 35.222656 86.296875 39.976562 87.851562 44.882812 88.839844 C 50.222656 89.910156 55.644531 90.355469 61.046875 90.964844 C 66.921875 91.625 72.824219 92.03125 78.667969 92.980469 C 82.542969 93.609375 86.5 93.6875 90.335938 94.578125 C 92.617188 95.105469 94.90625 95.457031 97.238281 95.605469 C 97.878906 95.648438 98.152344 95.472656 98.457031 94.984375 C 99.148438 93.886719 99.835938 92.777344 100.636719 91.765625 C 103.882812 87.65625 107.171875 83.582031 110.445312 79.496094 C 110.738281 79.332031 110.972656 79.109375 111.125 78.761719 C 110.710938 78.753906 110.382812 78.890625 110.109375 79.164062 Z M 110.109375 79.164062 " fill-opacity="1" fill-rule="nonzero"/><path fill="#3b82f6" d="M 124.4375 75.074219 C 121.984375 78.734375 119.523438 82.402344 116.886719 85.929688 C 114.921875 88.5625 112.535156 90.882812 110.59375 93.53125 C 108.597656 96.257812 106.191406 98.648438 104.359375 101.503906 C 103.453125 102.921875 102.367188 104.226562 101.339844 105.5625 C 101.019531 105.976562 100.621094 106.378906 100.023438 106.230469 C 99.425781 106.082031 99.308594 105.558594 99.203125 105.03125 C 98.730469 102.707031 98.199219 100.390625 97.785156 98.058594 C 97.601562 97.035156 97.253906 96.527344 96.117188 96.660156 C 95.308594 96.757812 94.445312 96.746094 93.65625 96.566406 C 89.054688 95.527344 84.359375 95.132812 79.707031 94.445312 C 71.875 93.296875 64.003906 92.558594 56.144531 91.75 C 48.726562 90.988281 41.472656 89.554688 34.355469 87.382812 C 30.242188 86.128906 26.03125 85.335938 21.765625 84.484375 C 22.300781 88.125 22.8125 91.648438 23.339844 95.167969 C 23.441406 95.84375 23.730469 96.277344 24.53125 96.433594 C 26.179688 96.761719 27.785156 97.3125 29.429688 97.664062 C 34.59375 98.769531 39.84375 99.351562 45.058594 100.15625 C 52.28125 101.273438 59.414062 102.957031 66.671875 103.835938 C 77.761719 105.175781 88.726562 107.28125 99.726562 109.167969 C 101.554688 109.484375 102.464844 108.875 103.335938 107.550781 C 104.863281 105.238281 106.414062 102.945312 108.242188 100.851562 C 110.726562 98.007812 112.605469 94.726562 114.769531 91.652344 C 118.832031 85.886719 122.96875 80.171875 127.070312 74.433594 C 127.195312 74.261719 127.355469 74.101562 127.238281 73.785156 C 126.089844 73.71875 125.175781 73.972656 124.4375 75.074219 Z M 93.332031 103.34375 C 92.933594 103.925781 93.070312 104.980469 92.039062 104.867188 C 90.648438 104.675781 89.328125 104.613281 88.101562 104.347656 C 86.835938 104.070312 85.988281 102.816406 85.113281 101.820312 C 85.03125 101.726562 85.050781 101.488281 85.097656 101.339844 C 85.289062 100.714844 87.417969 99.40625 88.085938 99.445312 C 89.203125 99.507812 90.289062 99.84375 91.425781 99.765625 C 92.46875 99.695312 92.75 100.757812 93.421875 101.246094 C 94.363281 101.929688 93.816406 102.636719 93.332031 103.34375 Z M 16.921875 92.289062 C 17.152344 92.964844 17.277344 93.679688 17.476562 94.480469 C 14.394531 93.933594 11.535156 93.117188 8.6875 92.066406 C 6.871094 91.394531 5.96875 90.628906 5.757812 88.679688 C 5.601562 87.207031 4.90625 85.789062 4.453125 84.347656 C 4.351562 84.015625 4.257812 83.683594 4.179688 83.347656 C 3.660156 81.109375 3.796875 80.996094 5.957031 81.449219 C 8.359375 81.957031 10.777344 82.402344 13.191406 82.835938 C 13.667969 82.921875 13.996094 83.046875 14.128906 83.554688 C 14.898438 86.519531 15.9375 89.394531 16.921875 92.289062 Z M 77.253906 83.382812 C 82.957031 83.074219 88.519531 82.730469 94.238281 82.925781 C 92.191406 87 88 88.65625 83.492188 87.148438 C 81.910156 86.621094 80.226562 86.265625 78.84375 85.238281 C 78.257812 84.800781 77.730469 84.289062 77.253906 83.382812 Z M 65.5625 48.613281 C 67.238281 53.035156 68.941406 57.445312 70.644531 61.890625 C 69.203125 62.480469 67.746094 62.121094 66.359375 62.363281 C 64.136719 62.757812 62.007812 63.4375 60.015625 64.488281 C 59.277344 64.878906 58.960938 64.769531 58.6875 63.9375 C 57.417969 60.046875 56.050781 56.191406 54.480469 52.410156 C 54.023438 51.308594 53.421875 50.269531 52.902344 49.226562 C 56.550781 48.0625 60.1875 47.492188 63.925781 47.515625 C 64.820312 47.519531 65.261719 47.824219 65.5625 48.613281 Z M 65.5625 48.613281 " fill-opacity="1" fill-rule="nonzero"/><path fill="#e5dad8" d="M 36.949219 31.535156 C 38.789062 36.695312 41.335938 41.566406 43.21875 46.707031 C 44.484375 50.160156 45.839844 53.570312 47.722656 56.742188 C 48.785156 58.535156 49.589844 60.429688 50.214844 62.414062 C 51.292969 65.824219 52.792969 69.089844 53.621094 72.585938 C 53.792969 73.328125 54.21875 74.007812 54.464844 74.570312 C 68.503906 68.070312 82.722656 66.976562 97.464844 72.058594 C 96.828125 69.992188 96.027344 68.003906 95.027344 66.097656 C 92.121094 60.546875 89.296875 54.949219 86.28125 49.457031 C 83.207031 43.867188 81.433594 37.734375 78.734375 31.992188 C 77.722656 29.839844 76.429688 27.828125 75.523438 25.644531 C 74.941406 24.234375 74.054688 23.570312 72.671875 23.21875 C 64.671875 21.164062 56.617188 20.855469 48.492188 22.363281 C 44.214844 23.160156 40.097656 24.378906 36.324219 26.621094 C 35.566406 27.070312 35.402344 27.457031 35.765625 28.261719 C 36.238281 29.316406 36.5625 30.441406 36.949219 31.535156 Z M 71.144531 63.382812 C 67.402344 63.488281 63.800781 64.21875 60.324219 65.648438 C 58.527344 66.382812 58.332031 66.164062 57.554688 64.347656 C 55.53125 59.632812 54.164062 54.667969 51.90625 50.042969 C 51.234375 48.660156 51.527344 48.296875 53.058594 47.980469 C 54.90625 47.597656 56.636719 46.761719 58.546875 46.589844 C 59.875 46.472656 61.199219 46.28125 62.523438 46.121094 C 62.527344 46.167969 62.527344 46.214844 62.53125 46.261719 C 63.351562 46.261719 64.167969 46.269531 64.988281 46.257812 C 66.007812 46.25 66.402344 46.941406 66.695312 47.753906 C 68.003906 51.351562 69.308594 54.953125 70.625 58.550781 C 71.066406 59.761719 71.496094 60.980469 71.992188 62.167969 C 72.371094 63.085938 71.964844 63.359375 71.144531 63.382812 Z M 89.847656 62.917969 C 89.703125 63.617188 89.0625 63.40625 88.671875 63.3125 C 86.992188 62.894531 85.304688 62.652344 83.582031 62.464844 C 81.824219 62.269531 80.136719 62.484375 78.433594 62.703125 C 77.742188 62.792969 77.058594 62.796875 76.371094 62.816406 C 76.007812 62.828125 75.625 62.753906 75.621094 62.308594 C 75.621094 61.964844 75.941406 61.828125 76.257812 61.777344 C 78.125 61.476562 79.992188 61.179688 81.597656 60.925781 C 84.28125 61.21875 86.691406 61.40625 89 62.171875 C 89.386719 62.300781 89.976562 62.289062 89.847656 62.917969 Z M 86.519531 57.855469 C 87.011719 58.023438 87.65625 58.152344 87.460938 58.832031 C 87.285156 59.4375 86.628906 59.234375 86.214844 59.132812 C 83.898438 58.5625 81.519531 58.484375 79.210938 58.097656 C 77.671875 58.285156 76.171875 58.527344 74.65625 58.429688 C 74.320312 58.410156 73.78125 58.601562 73.757812 57.992188 C 73.738281 57.445312 74.300781 57.433594 74.613281 57.410156 C 77.09375 57.230469 79.546875 56.53125 82.0625 57.113281 C 83.53125 57.453125 85.074219 57.367188 86.519531 57.855469 Z M 83.9375 51.964844 C 83.933594 52.375 83.628906 52.433594 83.308594 52.441406 C 83.007812 52.449219 82.703125 52.445312 82.101562 52.445312 C 79.574219 51.75 76.824219 52.351562 74.066406 52.894531 C 73.621094 52.984375 73.003906 53.082031 72.890625 52.4375 C 72.761719 51.707031 73.367188 51.660156 73.898438 51.585938 C 75.558594 51.359375 77.214844 51.058594 78.878906 50.890625 C 80.398438 50.734375 81.867188 51.28125 83.375 51.371094 C 83.71875 51.390625 83.9375 51.609375 83.9375 51.964844 Z M 80.214844 46.195312 C 80.898438 46.222656 81.589844 46.40625 82.140625 46.867188 C 82.371094 47.0625 82.578125 47.308594 82.390625 47.652344 C 82.246094 47.910156 81.992188 48.023438 81.726562 47.9375 C 78.308594 46.8125 74.777344 47.351562 71.292969 47.203125 C 71.164062 47.199219 71.035156 47.207031 70.902344 47.199219 C 70.535156 47.175781 70.179688 47.074219 70.132812 46.65625 C 70.074219 46.152344 70.503906 45.957031 70.878906 45.941406 C 72.046875 45.894531 73.214844 45.921875 74.011719 45.921875 C 76.34375 45.703125 78.269531 46.113281 80.214844 46.195312 Z M 77.085938 40.09375 C 77.570312 40.230469 78.054688 40.429688 77.878906 41.054688 C 77.722656 41.613281 77.191406 41.542969 76.785156 41.441406 C 72.910156 40.476562 68.949219 40.542969 65.035156 40.800781 C 59.925781 41.140625 54.753906 41.136719 49.761719 42.535156 C 48.765625 42.8125 47.816406 43.238281 46.824219 43.53125 C 46.484375 43.628906 45.949219 43.730469 45.78125 43.285156 C 45.589844 42.765625 46.175781 42.71875 46.472656 42.5625 C 49.101562 41.167969 51.945312 40.46875 54.882812 40.21875 C 59.398438 39.832031 63.90625 39.234375 68.929688 39.386719 C 71.09375 39.347656 73.734375 39.351562 76.335938 39.90625 C 76.585938 39.960938 76.839844 40.023438 77.085938 40.09375 Z M 75.757812 33.875 C 75.59375 34.699219 74.847656 34.398438 74.246094 34.292969 C 68.507812 33.269531 62.800781 33.832031 57.082031 34.570312 C 53.179688 35.070312 49.324219 35.71875 45.554688 36.851562 C 45.351562 36.914062 45.117188 37.019531 44.933594 36.96875 C 44.632812 36.890625 44.148438 36.949219 44.136719 36.496094 C 44.128906 36.152344 44.507812 36.121094 44.796875 36.007812 C 48.839844 34.421875 53.089844 33.761719 57.355469 33.128906 C 60.609375 32.648438 63.867188 32.296875 67.285156 32.351562 C 69.640625 32.199219 72.085938 32.472656 74.519531 32.898438 C 75.101562 33 75.917969 33.066406 75.757812 33.875 Z M 42.996094 29.226562 C 45.722656 27.484375 48.847656 26.953125 51.945312 26.421875 C 54.234375 26.027344 56.5625 25.773438 58.902344 25.828125 C 63.589844 25.859375 68.175781 26.640625 72.734375 27.65625 C 73.304688 27.78125 74.023438 27.925781 73.890625 28.597656 C 73.734375 29.414062 73.011719 29.152344 72.398438 29.015625 C 67.589844 27.925781 62.734375 27 57.78125 27.261719 C 52.90625 27.519531 48.074219 28.179688 43.570312 30.289062 C 43.167969 30.480469 42.644531 30.867188 42.320312 30.273438 C 41.992188 29.667969 42.625 29.464844 42.996094 29.226562 Z M 143.011719 61.738281 C 143.457031 61.824219 144.011719 61.75 143.960938 62.5 C 143.910156 63.285156 143.332031 63.070312 142.90625 63.066406 C 141.085938 63.050781 139.273438 63.046875 137.464844 63.304688 C 128.851562 64.539062 120.203125 65.671875 112.191406 69.335938 C 108.957031 70.816406 105.445312 71.8125 102.765625 74.355469 C 102.347656 74.75 101.808594 75.023438 101.484375 75.890625 C 114.613281 67.902344 128.773438 64.601562 143.835938 64.1875 C 143.492188 66.199219 143.492188 66.21875 141.445312 66.128906 C 130.730469 65.652344 120.621094 67.996094 110.84375 72.296875 C 107.421875 73.800781 104.089844 75.417969 101.097656 77.617188 C 99.222656 78.992188 97.378906 78.609375 95.59375 78 C 88.734375 75.664062 81.78125 76.242188 74.785156 76.980469 C 67.671875 77.734375 60.746094 79.402344 53.789062 80.953125 C 53.632812 80.988281 53.457031 80.957031 53.269531 80.957031 C 53.304688 79.914062 53.78125 79.421875 54.757812 79.015625 C 59.84375 76.902344 65.0625 75.308594 70.53125 74.617188 C 75.121094 74.039062 79.734375 73.332031 84.367188 73.800781 C 87.792969 74.152344 91.132812 75.0625 94.472656 75.925781 C 95.738281 76.253906 97.003906 76.820312 98.417969 76.355469 C 93.765625 74.464844 88.960938 73.171875 83.9375 72.664062 C 78.851562 72.148438 73.835938 72.898438 68.832031 73.550781 C 63.761719 74.210938 58.964844 75.90625 54.285156 78.1875 C 54.183594 77.1875 54.710938 76.632812 55.390625 76.140625 C 57.898438 74.328125 60.84375 73.625 63.734375 72.71875 C 70.15625 70.707031 76.714844 70.152344 83.371094 70.710938 C 88.28125 71.125 93.199219 71.671875 97.625 74.175781 C 98.332031 74.574219 99.070312 74.585938 99.878906 74.335938 C 101.964844 73.691406 103.777344 72.519531 105.683594 71.515625 C 113.625 67.34375 121.820312 63.835938 130.746094 62.398438 C 134.417969 61.808594 138.128906 61.441406 141.863281 61.570312 C 142.246094 61.582031 142.628906 61.667969 143.011719 61.738281 Z M 100.886719 95.949219 C 100.722656 96.195312 100.308594 96.523438 100.785156 96.816406 C 101.171875 97.058594 101.457031 96.703125 101.636719 96.433594 C 103.023438 94.375 104.804688 92.65625 106.394531 90.773438 C 109.460938 87.132812 112.585938 83.542969 115.207031 79.550781 C 115.914062 78.472656 117.054688 77.738281 117.769531 76.625 C 118.042969 76.195312 118.617188 76.113281 119.398438 76.089844 C 117.992188 78.039062 116.890625 79.898438 115.507812 81.566406 C 111.234375 86.730469 106.726562 91.699219 102.660156 97.035156 C 102.214844 97.621094 101.832031 98.25 101.433594 98.867188 C 101.261719 99.136719 101.175781 99.503906 101.457031 99.691406 C 101.746094 99.882812 102.035156 99.625 102.234375 99.390625 C 102.933594 98.5625 103.6875 97.769531 104.292969 96.878906 C 105.996094 94.363281 108.070312 92.140625 109.9375 89.761719 C 112.285156 86.769531 114.878906 83.976562 117.296875 81.042969 C 118.644531 79.410156 119.882812 77.683594 121.109375 75.957031 C 121.667969 75.171875 122.378906 74.875 123.203125 74.808594 C 116.339844 85.125 107.722656 94.082031 100.496094 104.425781 C 99.96875 101.964844 99.507812 99.785156 99.035156 97.609375 C 98.890625 96.949219 99.179688 96.460938 99.527344 95.9375 C 101.824219 92.464844 104.507812 89.285156 107.128906 86.066406 C 109.152344 83.585938 110.820312 80.839844 113.050781 78.507812 C 113.851562 77.671875 114.738281 77.441406 115.792969 77.09375 C 111.9375 82.273438 108.015625 87.25 103.789062 91.96875 C 102.683594 93.203125 101.792969 94.578125 100.886719 95.949219 Z M 34.980469 31.984375 C 34.761719 31.234375 35.007812 30.472656 35.21875 29.726562 C 36.722656 35.183594 39.417969 40.140625 41.296875 45.402344 C 42.984375 50.121094 45.03125 54.660156 47.347656 59.121094 C 49.34375 62.964844 50.65625 67.167969 51.828125 71.363281 C 52.214844 72.746094 52.695312 74.0625 53.347656 75.335938 C 53.558594 75.742188 53.972656 76.199219 53.375 76.890625 C 52.265625 73.941406 50.566406 71.398438 49.574219 68.519531 C 48.84375 66.40625 48.03125 64.3125 46.957031 62.359375 C 44.859375 58.539062 43.316406 54.488281 41.847656 50.40625 C 40.800781 47.496094 39.46875 44.710938 38.269531 41.867188 C 36.910156 38.652344 35.96875 35.3125 34.980469 31.984375 Z M 34.855469 37.714844 C 34.484375 36.464844 34.355469 35.285156 34.664062 33.953125 C 34.910156 34.757812 35.1875 35.554688 35.398438 36.371094 C 36.125 39.21875 37.1875 41.953125 38.507812 44.558594 C 40.570312 48.640625 41.902344 53.003906 43.519531 57.253906 C 44.597656 60.089844 46.25 62.621094 47.40625 65.40625 C 47.667969 66.035156 47.933594 66.675781 48.121094 67.3125 C 49.140625 70.769531 51.089844 73.808594 52.457031 77.109375 C 52.890625 78.164062 52.96875 79.0625 52.25 80.082031 C 51.148438 77.65625 50.523438 75.113281 49.605469 72.679688 C 48.003906 68.433594 45.835938 64.457031 44.0625 60.296875 C 42.832031 57.410156 41.777344 54.453125 40.40625 51.621094 C 38.230469 47.121094 36.292969 42.523438 34.855469 37.714844 Z M 143.546875 60.441406 C 141.242188 60.25 139.167969 60.269531 137.078125 60.394531 C 129.8125 60.832031 122.847656 62.425781 116.125 65.242188 C 112.058594 66.945312 107.984375 68.605469 104.199219 70.894531 C 103.976562 71.167969 103.691406 71.328125 103.34375 71.402344 C 103.246094 70.988281 103.542969 70.9375 103.804688 70.855469 C 105.054688 69.644531 106.441406 68.609375 108 67.828125 C 112.398438 65.613281 116.761719 63.300781 121.242188 61.253906 C 125.25 59.425781 129.574219 58.453125 133.761719 57.105469 C 135.40625 56.574219 137.0625 56.082031 138.691406 55.511719 C 139.28125 55.304688 139.515625 55.40625 139.902344 55.933594 C 140.996094 57.429688 142.222656 58.824219 143.546875 60.441406 Z M 141.632812 51.125 C 140.222656 48.941406 139.085938 46.609375 137.832031 44.339844 C 136.011719 41.042969 134.640625 37.535156 132.738281 34.269531 C 127.785156 25.746094 122.847656 17.203125 119.449219 7.886719 C 118.855469 6.269531 118.359375 4.601562 117.445312 3.113281 C 117.132812 2.605469 116.863281 2.339844 116.125 2.449219 C 113.644531 2.804688 111.121094 2.890625 108.648438 3.292969 C 104.519531 3.96875 100.339844 4.421875 96.425781 6.121094 C 93.144531 7.550781 90.234375 9.558594 87.304688 11.5625 C 85.953125 12.488281 84.457031 13.195312 83.277344 14.386719 C 81.242188 16.453125 79.367188 18.664062 77.179688 20.597656 C 75.445312 22.125 75.421875 22.949219 76.417969 24.980469 C 76.625 25.40625 76.859375 25.824219 77.113281 26.222656 C 79.304688 29.664062 81.164062 33.300781 82.484375 37.128906 C 84.941406 44.25 88.773438 50.691406 92.144531 57.347656 C 94.699219 62.382812 97.652344 67.210938 99.390625 72.707031 C 99.589844 72.59375 99.75 72.535156 99.875 72.433594 C 101.546875 71.058594 103.179688 69.636719 104.886719 68.304688 C 107.53125 66.238281 110.6875 65.082031 113.640625 63.566406 C 116.90625 61.894531 119.996094 59.816406 123.519531 58.71875 C 127.0625 57.613281 130.550781 56.328125 134.152344 55.390625 C 136.441406 54.796875 138.675781 53.957031 140.914062 53.175781 C 142.492188 52.628906 142.519531 52.5 141.632812 51.125 Z M 82.132812 24.105469 C 81.886719 23.761719 82.230469 23.457031 82.488281 23.230469 C 86.457031 19.765625 90.101562 15.804688 95.019531 13.660156 C 99.554688 11.679688 104.277344 10.136719 109.109375 9.007812 C 109.808594 8.84375 110.578125 8.984375 111.3125 8.984375 C 111.3125 8.949219 111.3125 8.917969 111.3125 8.882812 C 111.875 8.882812 112.441406 8.851562 113 8.894531 C 113.433594 8.929688 114.070312 8.78125 114.074219 9.507812 C 114.078125 10.207031 113.425781 10.097656 113.003906 10.167969 C 112.496094 10.253906 111.96875 10.246094 111.449219 10.226562 C 109.339844 10.144531 107.34375 10.652344 105.371094 11.335938 C 102.84375 12.207031 100.308594 13.050781 97.773438 13.902344 C 94.226562 15.09375 91.191406 17.125 88.457031 19.625 C 86.761719 21.179688 84.941406 22.566406 83.121094 23.960938 C 82.828125 24.1875 82.464844 24.570312 82.132812 24.105469 Z M 85.648438 31.28125 C 85.367188 31.394531 84.914062 31.503906 84.730469 31.097656 C 84.558594 30.714844 84.957031 30.617188 85.195312 30.449219 C 86.257812 29.695312 87.15625 28.761719 88.089844 27.859375 C 92.308594 23.773438 97.160156 20.6875 102.769531 18.863281 C 104.207031 18.394531 105.640625 17.933594 107.007812 17.273438 C 109.863281 15.898438 113.328125 15.132812 117.039062 15.015625 C 117.34375 15.03125 117.832031 15.035156 117.941406 15.570312 C 118.070312 16.226562 117.515625 16.386719 117.0625 16.457031 C 115.78125 16.644531 114.496094 16.808594 113.207031 16.910156 C 109.96875 17.164062 107.332031 19.121094 104.3125 19.996094 C 98.085938 21.808594 92.691406 25.03125 88.09375 29.601562 C 87.386719 30.304688 86.578125 30.90625 85.648438 31.28125 Z M 90.414062 38.0625 C 90.113281 38.515625 89.695312 39.167969 89.085938 38.734375 C 88.378906 38.230469 89 37.714844 89.324219 37.207031 C 92.863281 31.683594 98.40625 28.6875 103.917969 25.695312 C 108.164062 23.382812 112.695312 21.730469 117.386719 20.542969 C 118.503906 20.257812 119.679688 20.179688 120.679688 19.855469 C 121.140625 19.882812 121.527344 19.832031 121.609375 20.308594 C 121.679688 20.703125 121.5 20.992188 121.15625 21.15625 C 120.886719 21.285156 120.59375 21.4375 120.304688 21.457031 C 117.769531 21.597656 115.488281 22.730469 113.074219 23.335938 C 109.957031 24.113281 107.175781 25.765625 104.304688 27.136719 C 98.871094 29.730469 93.851562 32.902344 90.414062 38.0625 Z M 92.335938 44.921875 C 91.855469 44.523438 92.660156 43.898438 92.960938 43.414062 C 95.128906 39.9375 98.433594 37.636719 101.675781 35.363281 C 104.394531 33.457031 107.351562 31.878906 110.296875 30.332031 C 114.035156 28.367188 118.222656 28.046875 122.296875 27.371094 C 122.828125 27.269531 123.464844 27.117188 123.566406 27.832031 C 123.671875 28.558594 123.023438 28.671875 122.4375 28.769531 C 118.613281 29.417969 114.617188 29.683594 111.203125 31.640625 C 106.867188 34.128906 102.296875 36.28125 98.546875 39.726562 C 97.050781 41.101562 95.40625 42.316406 94.199219 43.984375 C 94.148438 44.054688 94.089844 44.117188 94.027344 44.179688 C 93.539062 44.648438 92.847656 45.34375 92.335938 44.921875 Z M 94.351562 51.878906 C 94.066406 51.835938 93.855469 51.699219 93.78125 51.425781 C 93.710938 51.160156 93.773438 50.960938 94.054688 50.792969 C 99.71875 47.371094 104.832031 43.125 110.609375 39.871094 C 113.375 38.3125 116.324219 37.203125 119.253906 36.054688 C 121.113281 35.324219 123.179688 35.589844 125.132812 35.238281 C 125.808594 35.117188 126.496094 35.03125 127.140625 34.9375 C 127.636719 34.976562 128.25 34.828125 128.3125 35.492188 C 128.363281 36.074219 127.851562 36.246094 127.347656 36.324219 C 125.898438 36.546875 124.457031 36.894531 123.003906 36.976562 C 118.886719 37.210938 115.359375 39.136719 111.902344 41.011719 C 107.808594 43.234375 103.824219 45.699219 100.15625 48.625 C 98.777344 49.722656 97.191406 50.5625 95.695312 51.515625 C 95.289062 51.773438 94.855469 51.957031 94.351562 51.878906 Z M 98.324219 57.582031 C 98.039062 57.777344 97.761719 57.988281 97.484375 58.191406 C 97.261719 58.355469 97.03125 58.464844 96.796875 58.21875 C 96.578125 57.988281 96.625 57.757812 96.824219 57.539062 C 97.117188 57.21875 97.394531 56.886719 97.703125 56.582031 C 102.34375 52.027344 107.738281 48.726562 113.894531 46.597656 C 117.597656 45.316406 121.085938 43.464844 124.867188 42.355469 C 126.363281 41.914062 127.824219 41.40625 129.410156 41.429688 C 129.886719 41.449219 130.359375 41.46875 130.835938 41.496094 C 131.238281 41.519531 131.496094 41.738281 131.519531 42.136719 C 131.542969 42.554688 131.277344 42.742188 130.875 42.789062 C 121.71875 43.820312 113.816406 48.289062 105.675781 52.0625 C 102.875 53.363281 100.859375 55.851562 98.324219 57.582031 Z M 135.378906 46.6875 C 135.253906 47.324219 134.652344 47.335938 134.246094 47.351562 C 131.3125 47.464844 128.621094 48.59375 125.828125 49.304688 C 124.863281 49.546875 123.882812 49.785156 123.039062 50.324219 C 118.0625 53.507812 112.449219 55.382812 107.199219 58.015625 C 104.941406 59.148438 102.726562 60.28125 101.019531 62.203125 C 100.878906 62.363281 100.703125 62.5 100.527344 62.621094 C 100.226562 62.828125 99.863281 62.96875 99.597656 62.636719 C 99.363281 62.34375 99.445312 62.039062 99.734375 61.730469 C 101.230469 60.097656 102.789062 58.570312 104.8125 57.554688 C 108.867188 55.519531 113.054688 53.777344 117.191406 51.929688 C 117.820312 51.644531 118.496094 51.425781 119.058594 51.039062 C 123.457031 48.003906 128.542969 47.066406 133.652344 46.199219 C 134.074219 46.128906 134.515625 46.152344 134.945312 46.167969 C 135.253906 46.179688 135.410156 46.367188 135.378906 46.6875 Z M 135.378906 46.6875 " fill-opacity="1" fill-rule="nonzero"/></svg>